<mxfile host="drawio-plugin" modified="2021-11-09T13:16:21.329Z" agent="5.0 (Windows NT 6.2; Win64; x64) AppleWebKit/537.36 (KHTML, like Gecko) Chrome/89.0.4389.114 Safari/537.36" etag="rqN8ta9R-YH8_sZEdiun" version="14.7.4" type="embed"><diagram id="kgpKYQtTHZ0yAKxKKP6v" name="Page-1"><mxGraphModel dx="1467" dy="1069" grid="1" gridSize="10" guides="1" tooltips="1" connect="1" arrows="1" fold="1" page="1" pageScale="1" pageWidth="2339" pageHeight="3300" math="0" shadow="0"><root><mxCell id="0"/><mxCell id="1" parent="0"/><mxCell id="3nuBFxr9cyL0pnOWT2aG-1" value="FlightRouteController:&#10;addFlightroute" style="shape=umlLifeline;perimeter=lifelinePerimeter;container=1;collapsible=0;recursiveResize=0;rounded=0;shadow=0;strokeWidth=1;fontSize=9;" parent="1" vertex="1"><mxGeometry x="845" y="320" width="100" height="670" as="geometry"/></mxCell><mxCell id="3nuBFxr9cyL0pnOWT2aG-2" value="" style="points=[];perimeter=orthogonalPerimeter;rounded=0;shadow=0;strokeWidth=1;" parent="3nuBFxr9cyL0pnOWT2aG-1" vertex="1"><mxGeometry x="45" y="70" width="10" height="500" as="geometry"/></mxCell><mxCell id="3nuBFxr9cyL0pnOWT2aG-3" value="addFlightRouteRequest" style="verticalAlign=bottom;startArrow=none;endArrow=block;startSize=8;shadow=0;strokeWidth=1;startFill=0;" parent="3nuBFxr9cyL0pnOWT2aG-1" target="3nuBFxr9cyL0pnOWT2aG-2" edge="1"><mxGeometry relative="1" as="geometry"><mxPoint x="-225" y="70" as="sourcePoint"/></mxGeometry></mxCell><mxCell id="3nuBFxr9cyL0pnOWT2aG-5" value="FlightRouteService:&#10;createFlightRoute" style="shape=umlLifeline;perimeter=lifelinePerimeter;container=1;collapsible=0;recursiveResize=0;rounded=0;shadow=0;strokeWidth=1;fontSize=9;" parent="1" vertex="1"><mxGeometry x="1120" y="320" width="100" height="630" as="geometry"/></mxCell><mxCell id="3nuBFxr9cyL0pnOWT2aG-6" value="" style="points=[];perimeter=orthogonalPerimeter;rounded=0;shadow=0;strokeWidth=1;" parent="3nuBFxr9cyL0pnOWT2aG-5" vertex="1"><mxGeometry x="45" y="80" width="10" height="490" as="geometry"/></mxCell><mxCell id="Fd8FxSf_azzKfpY1bieM-28" value="saveAndFlush(flightRoute)" style="verticalAlign=bottom;endArrow=block;shadow=0;strokeWidth=1;fontStyle=0" parent="3nuBFxr9cyL0pnOWT2aG-5" target="Fd8FxSf_azzKfpY1bieM-4" edge="1"><mxGeometry relative="1" as="geometry"><mxPoint x="50.00034482758656" y="439.9999999999998" as="sourcePoint"/><mxPoint x="600" y="440" as="targetPoint"/><Array as="points"><mxPoint x="185.19000000000005" y="440"/></Array></mxGeometry></mxCell><mxCell id="Fd8FxSf_azzKfpY1bieM-1" value="FlightRoute:FlightRoute" style="shape=umlLifeline;perimeter=lifelinePerimeter;container=1;collapsible=0;recursiveResize=0;rounded=0;shadow=0;strokeWidth=1;fontSize=9;" parent="1" vertex="1"><mxGeometry x="1560" y="320" width="100" height="420" as="geometry"/></mxCell><mxCell id="Fd8FxSf_azzKfpY1bieM-2" value="" style="points=[];perimeter=orthogonalPerimeter;rounded=0;shadow=0;strokeWidth=1;" parent="Fd8FxSf_azzKfpY1bieM-1" vertex="1"><mxGeometry x="45" y="360" width="10" height="50" as="geometry"/></mxCell><mxCell id="Fd8FxSf_azzKfpY1bieM-3" value="" style="points=[];perimeter=orthogonalPerimeter;rounded=0;shadow=0;strokeWidth=1;" parent="1" vertex="1"><mxGeometry x="300" y="750" width="10" height="80" as="geometry"/></mxCell><mxCell id="Fd8FxSf_azzKfpY1bieM-4" value=":FlightRouteRepository" style="shape=umlLifeline;perimeter=lifelinePerimeter;container=1;collapsible=0;recursiveResize=0;rounded=0;shadow=0;strokeWidth=1;fontSize=9;" parent="1" vertex="1"><mxGeometry x="1720" y="320" width="100" height="560" as="geometry"/></mxCell><mxCell id="Fd8FxSf_azzKfpY1bieM-5" value="" style="points=[];perimeter=orthogonalPerimeter;rounded=0;shadow=0;strokeWidth=1;" parent="Fd8FxSf_azzKfpY1bieM-4" vertex="1"><mxGeometry x="45" y="260" width="10" height="270" as="geometry"/></mxCell><mxCell id="Fd8FxSf_azzKfpY1bieM-6" value=":FlightRoute" style="shape=umlLifeline;perimeter=lifelinePerimeter;container=1;collapsible=0;recursiveResize=0;rounded=0;shadow=0;strokeWidth=1;fontSize=9;" parent="1" vertex="1"><mxGeometry x="190" y="640" width="100" height="300" as="geometry"/></mxCell><mxCell id="Fd8FxSf_azzKfpY1bieM-7" value="" style="points=[];perimeter=orthogonalPerimeter;rounded=0;shadow=0;strokeWidth=1;" parent="Fd8FxSf_azzKfpY1bieM-6" vertex="1"><mxGeometry x="45" y="80" width="10" height="160" as="geometry"/></mxCell><mxCell id="Fd8FxSf_azzKfpY1bieM-11" value="dispatch" style="verticalAlign=bottom;endArrow=block;entryX=0;entryY=0;shadow=0;strokeWidth=1;" parent="1" edge="1"><mxGeometry relative="1" as="geometry"><mxPoint x="310" y="440" as="sourcePoint"/><mxPoint x="480" y="440.0000000000002" as="targetPoint"/><Array as="points"><mxPoint x="450" y="440"/></Array></mxGeometry></mxCell><mxCell id="Fd8FxSf_azzKfpY1bieM-12" value="callback" style="verticalAlign=bottom;endArrow=block;entryX=1;entryY=0;shadow=0;strokeWidth=1;" parent="1" edge="1"><mxGeometry relative="1" as="geometry"><mxPoint x="475" y="480" as="sourcePoint"/><mxPoint x="310" y="480" as="targetPoint"/></mxGeometry></mxCell><mxCell id="Fd8FxSf_azzKfpY1bieM-13" value="return" style="verticalAlign=bottom;endArrow=open;dashed=1;endSize=8;exitX=1;exitY=0.95;shadow=0;strokeWidth=1;" parent="1" edge="1"><mxGeometry relative="1" as="geometry"><mxPoint x="485" y="530" as="targetPoint"/><mxPoint x="320" y="530" as="sourcePoint"/></mxGeometry></mxCell><mxCell id="Fd8FxSf_azzKfpY1bieM-14" value="return" style="verticalAlign=bottom;endArrow=open;dashed=1;endSize=8;exitX=0;exitY=0.95;shadow=0;strokeWidth=1;" parent="1" edge="1"><mxGeometry relative="1" as="geometry"><mxPoint x="310" y="579.66" as="targetPoint"/><mxPoint x="480" y="579.66" as="sourcePoint"/></mxGeometry></mxCell><mxCell id="Fd8FxSf_azzKfpY1bieM-15" value="addFlightroute(FlightRouteDTO)" style="verticalAlign=bottom;endArrow=block;shadow=0;strokeWidth=1;" parent="1" source="3nuBFxr9cyL0pnOWT2aG-2" target="3nuBFxr9cyL0pnOWT2aG-5" edge="1"><mxGeometry relative="1" as="geometry"><mxPoint x="920.0000000000002" y="649.9999999999998" as="sourcePoint"/><mxPoint x="1160" y="410" as="targetPoint"/><Array as="points"><mxPoint x="1000" y="410"/></Array></mxGeometry></mxCell><mxCell id="Fd8FxSf_azzKfpY1bieM-16" value="AirportService:&#10;findAirportByCodeICAO" style="shape=umlLifeline;perimeter=lifelinePerimeter;container=1;collapsible=0;recursiveResize=0;rounded=0;shadow=0;strokeWidth=1;fontSize=9;" parent="1" vertex="1"><mxGeometry x="1400" y="320" width="100" height="250" as="geometry"/></mxCell><mxCell id="Fd8FxSf_azzKfpY1bieM-17" value="" style="points=[];perimeter=orthogonalPerimeter;rounded=0;shadow=0;strokeWidth=1;" parent="Fd8FxSf_azzKfpY1bieM-16" vertex="1"><mxGeometry x="45" y="80" width="10" height="160" as="geometry"/></mxCell><mxCell id="Fd8FxSf_azzKfpY1bieM-18" value="findAirportByCodeICAO(arrivalCodeICAO)" style="verticalAlign=bottom;endArrow=block;shadow=0;strokeWidth=1;" parent="1" source="3nuBFxr9cyL0pnOWT2aG-6" target="Fd8FxSf_azzKfpY1bieM-16" edge="1"><mxGeometry relative="1" as="geometry"><mxPoint x="1200" y="550" as="sourcePoint"/><mxPoint x="1420" y="430" as="targetPoint"/><Array as="points"><mxPoint x="1290" y="430"/></Array></mxGeometry></mxCell><mxCell id="Fd8FxSf_azzKfpY1bieM-19" value="Airport arrival" style="verticalAlign=bottom;endArrow=open;dashed=1;endSize=8;shadow=0;strokeWidth=1;" parent="1" source="Fd8FxSf_azzKfpY1bieM-16" target="3nuBFxr9cyL0pnOWT2aG-5" edge="1"><mxGeometry relative="1" as="geometry"><mxPoint x="1230.0000000000002" y="449.9999999999999" as="targetPoint"/><mxPoint x="1400" y="449.9999999999999" as="sourcePoint"/><Array as="points"><mxPoint x="1330" y="470"/></Array></mxGeometry></mxCell><mxCell id="Fd8FxSf_azzKfpY1bieM-20" value="findAirportByCodeICAO(arrivalCodeICAO)" style="verticalAlign=bottom;endArrow=block;shadow=0;strokeWidth=1;entryX=0.5;entryY=0.75;entryDx=0;entryDy=0;entryPerimeter=0;" parent="1" source="3nuBFxr9cyL0pnOWT2aG-6" target="Fd8FxSf_azzKfpY1bieM-17" edge="1"><mxGeometry relative="1" as="geometry"><mxPoint x="1185" y="520" as="sourcePoint"/><mxPoint x="1440" y="520" as="targetPoint"/><Array as="points"><mxPoint x="1300" y="520"/></Array></mxGeometry></mxCell><mxCell id="Fd8FxSf_azzKfpY1bieM-21" value="Airport departure" style="verticalAlign=bottom;endArrow=open;dashed=1;endSize=8;shadow=0;strokeWidth=1;" parent="1" edge="1"><mxGeometry relative="1" as="geometry"><mxPoint x="1170.0003448275866" y="550" as="targetPoint"/><mxPoint x="1449.6899999999996" y="550" as="sourcePoint"/></mxGeometry></mxCell><mxCell id="Fd8FxSf_azzKfpY1bieM-22" value="existsByParams" style="verticalAlign=bottom;endArrow=block;shadow=0;strokeWidth=1;fontStyle=2" parent="1" target="Fd8FxSf_azzKfpY1bieM-4" edge="1"><mxGeometry relative="1" as="geometry"><mxPoint x="1170" y="600" as="sourcePoint"/><mxPoint x="1444.4999999999995" y="600" as="targetPoint"/><Array as="points"><mxPoint x="1285" y="600"/></Array></mxGeometry></mxCell><mxCell id="Fd8FxSf_azzKfpY1bieM-24" value="existsOrNot" style="verticalAlign=bottom;endArrow=open;dashed=1;endSize=8;shadow=0;strokeWidth=1;" parent="1" source="Fd8FxSf_azzKfpY1bieM-4" target="3nuBFxr9cyL0pnOWT2aG-5" edge="1"><mxGeometry relative="1" as="geometry"><mxPoint x="1200.0003448275866" y="640" as="targetPoint"/><mxPoint x="1479.6899999999996" y="640" as="sourcePoint"/><Array as="points"><mxPoint x="1390" y="640"/></Array></mxGeometry></mxCell><mxCell id="Fd8FxSf_azzKfpY1bieM-25" value="&lt;h1&gt;Questions&lt;/h1&gt;&lt;p&gt;Alleen happy flow?&lt;/p&gt;&lt;p&gt;Exceptions?&lt;/p&gt;" style="text;html=1;strokeColor=none;fillColor=none;spacing=5;spacingTop=-20;whiteSpace=wrap;overflow=hidden;rounded=0;sketch=0;fontSize=9;" parent="1" vertex="1"><mxGeometry x="340" y="250" width="190" height="120" as="geometry"/></mxCell><mxCell id="Fd8FxSf_azzKfpY1bieM-26" value="new FlightRoute(FlightRouteDTO, arrival, departure)" style="verticalAlign=bottom;endArrow=block;shadow=0;strokeWidth=1;fontStyle=0" parent="1" source="3nuBFxr9cyL0pnOWT2aG-5" target="Fd8FxSf_azzKfpY1bieM-1" edge="1"><mxGeometry relative="1" as="geometry"><mxPoint x="1190" y="690" as="sourcePoint"/><mxPoint x="1789.4999999999995" y="690" as="targetPoint"/><Array as="points"><mxPoint x="1305" y="690"/></Array></mxGeometry></mxCell><mxCell id="Fd8FxSf_azzKfpY1bieM-27" value="FlightRoute flightRoute" style="verticalAlign=bottom;endArrow=open;dashed=1;endSize=8;shadow=0;strokeWidth=1;" parent="1" source="Fd8FxSf_azzKfpY1bieM-1" edge="1"><mxGeometry relative="1" as="geometry"><mxPoint x="1170.0003448275866" y="720" as="targetPoint"/><mxPoint x="1449.6899999999996" y="720" as="sourcePoint"/></mxGeometry></mxCell><mxCell id="Fd8FxSf_azzKfpY1bieM-29" value="findByParams" style="verticalAlign=bottom;endArrow=block;shadow=0;strokeWidth=1;fontStyle=2" parent="1" edge="1"><mxGeometry relative="1" as="geometry"><mxPoint x="1170" y="800" as="sourcePoint"/><mxPoint x="1769.4999999999995" y="800" as="targetPoint"/><Array as="points"><mxPoint x="1285" y="800"/></Array></mxGeometry></mxCell><mxCell id="Fd8FxSf_azzKfpY1bieM-30" value="FlightRoute flightRouteResult" style="verticalAlign=bottom;endArrow=open;dashed=1;endSize=8;shadow=0;strokeWidth=1;" parent="1" source="Fd8FxSf_azzKfpY1bieM-4" edge="1"><mxGeometry relative="1" as="geometry"><mxPoint x="1170.0003448275866" y="829.9999999999998" as="targetPoint"/><mxPoint x="1609.4999999999995" y="829.9999999999998" as="sourcePoint"/></mxGeometry></mxCell><mxCell id="Fd8FxSf_azzKfpY1bieM-31" value="FlightRouteDTO flightRouteDTO" style="verticalAlign=bottom;endArrow=open;dashed=1;endSize=8;shadow=0;strokeWidth=1;" parent="1" edge="1"><mxGeometry relative="1" as="geometry"><mxPoint x="900.5003448275866" y="859.9999999999998" as="targetPoint"/><mxPoint x="1170" y="860" as="sourcePoint"/></mxGeometry></mxCell><mxCell id="Fd8FxSf_azzKfpY1bieM-32" value="FlightRouteResponseDTO flightRouteResponseDTO" style="verticalAlign=bottom;endArrow=open;dashed=1;endSize=8;shadow=0;strokeWidth=1;" parent="1" edge="1"><mxGeometry relative="1" as="geometry"><mxPoint x="620.0003448275866" y="879.9999999999998" as="targetPoint"/><mxPoint x="889.5" y="879.9999999999998" as="sourcePoint"/></mxGeometry></mxCell><mxCell id="Fd8FxSf_azzKfpY1bieM-37" style="edgeStyle=orthogonalEdgeStyle;curved=0;rounded=1;sketch=0;orthogonalLoop=1;jettySize=auto;html=1;fontSize=9;endArrow=none;endFill=0;dashed=1;" parent="1" source="Fd8FxSf_azzKfpY1bieM-36" edge="1"><mxGeometry relative="1" as="geometry"><mxPoint x="615.0000000000002" y="949.9999999999998" as="targetPoint"/></mxGeometry></mxCell><mxCell id="Fd8FxSf_azzKfpY1bieM-36" value="Employee" style="shape=umlActor;verticalLabelPosition=bottom;verticalAlign=top;html=1;outlineConnect=0;rounded=0;sketch=0;fontSize=9;" parent="1" vertex="1"><mxGeometry x="600" y="290" width="30" height="60" as="geometry"/></mxCell></root></mxGraphModel></diagram></mxfile>